<?xml version="1.0" encoding="utf-8"?>
<!-- Generator: Adobe Illustrator 24.0.0, SVG Export Plug-In . SVG Version: 6.00 Build 0)  -->
<svg version="1.1" id="Layer_1" xmlns="http://www.w3.org/2000/svg" xmlns:xlink="http://www.w3.org/1999/xlink" x="0px" y="0px"
	 viewBox="0 0 16 16" style="enable-background:new 0 0 16 16;" xml:space="preserve">
<style type="text/css">
	.st0{fill:url(#SVGID_1_);}
	.st1{fill:url(#SVGID_2_);}
	.st2{fill:url(#SVGID_3_);}
</style>
<g>
	<linearGradient id="SVGID_1_" gradientUnits="userSpaceOnUse" x1="0.5" y1="11.2263184" x2="15.5" y2="11.2263184">
		<stop  offset="0.1731844" style="stop-color:#4D63F6"/>
		<stop  offset="0.6480446" style="stop-color:#1D45D8"/>
	</linearGradient>
	<path class="st0" d="M7.8111134,7.3097267l-7.0776367,3.5388184c-0.3113022,0.1556511-0.3113022,0.5998955,0,0.7555466
		L7.8111134,15.14291c0.118907,0.059453,0.2588663,0.059453,0.3777733,0l7.0776367-3.5388184
		c0.3113022-0.1556511,0.3113022-0.5998955,0-0.7555466L8.1888866,7.3097267
		C8.0699797,7.2502732,7.9300203,7.2502732,7.8111134,7.3097267z"/>
	<linearGradient id="SVGID_2_" gradientUnits="userSpaceOnUse" x1="0.5" y1="8" x2="15.5" y2="8">
		<stop  offset="0.0055866" style="stop-color:#98AFFF"/>
		<stop  offset="0.6927374" style="stop-color:#4D63F6"/>
	</linearGradient>
	<path class="st1" d="M7.8111134,4.0834084L0.7334766,7.6222267c-0.3113022,0.1556511-0.3113022,0.5998955,0,0.7555466
		l7.0776367,3.5388184c0.118907,0.059453,0.2588663,0.059453,0.3777733,0l7.0776367-3.5388184
		c0.3113022-0.1556511,0.3113022-0.5998955,0-0.7555466L8.1888866,4.0834084
		C8.0699797,4.0239549,7.9300203,4.0239549,7.8111134,4.0834084z"/>
	<linearGradient id="SVGID_3_" gradientUnits="userSpaceOnUse" x1="0.5" y1="4.7736816" x2="15.5" y2="4.7736816">
		<stop  offset="0" style="stop-color:#D7E3FF"/>
		<stop  offset="1" style="stop-color:#8AA3FF"/>
	</linearGradient>
	<path class="st2" d="M7.8111134,0.8570901L0.7334766,4.3959084c-0.3113022,0.1556511-0.3113022,0.5998955,0,0.7555466
		l7.0776367,3.5388184c0.118907,0.059453,0.2588663,0.059453,0.3777733,0l7.0776367-3.5388184
		c0.3113022-0.1556511,0.3113022-0.5998955,0-0.7555466L8.1888866,0.8570901
		C8.0699797,0.7976366,7.9300203,0.7976366,7.8111134,0.8570901z"/>
</g>
</svg>
