<?xml version="1.0" encoding="utf-8"?>
<!-- Generator: Adobe Illustrator 24.0.0, SVG Export Plug-In . SVG Version: 6.00 Build 0)  -->
<svg version="1.1" id="Layer_1" xmlns="http://www.w3.org/2000/svg" xmlns:xlink="http://www.w3.org/1999/xlink" x="0px" y="0px"
	 viewBox="0 0 600 600" style="enable-background:new 0 0 600 600;" xml:space="preserve">
<style type="text/css">
	.st0{fill:url(#SVGID_1_);}
	.st1{fill:url(#SVGID_2_);}
	.st2{fill:url(#SVGID_3_);}
	.st3{fill:url(#SVGID_4_);}
	.st4{fill:url(#SVGID_5_);}
</style>
<g>
	<linearGradient id="SVGID_1_" gradientUnits="userSpaceOnUse" x1="20" y1="275.8755" x2="136.0363" y2="275.8755">
		<stop  offset="0.1732" style="stop-color:#4D63F6"/>
		<stop  offset="0.648" style="stop-color:#1D45D8"/>
	</linearGradient>
	<path class="st0" d="M108.6,199.1c8.5,4.9,15.2,11.6,20.1,20.1c4.9,8.5,7.3,17.7,7.3,27.6c0,9.9-2.4,19.1-7.3,27.5
		c-4.9,8.4-11.6,15.1-20.1,20.1c-8.5,5-17.7,7.4-27.6,7.4H51.2V360H20V191.8h61C90.9,191.8,100.2,194.2,108.6,199.1z M81,271.8
		c6.9,0,12.8-2.4,17.8-7.3c5-4.9,7.4-10.8,7.4-17.7c0-7-2.4-13-7.3-17.9c-4.9-4.9-10.9-7.3-17.9-7.3H51.2v50.2H81z"/>
	<linearGradient id="SVGID_2_" gradientUnits="userSpaceOnUse" x1="132.6742" y1="300.0198" x2="257.6014" y2="300.0198">
		<stop  offset="0.1732" style="stop-color:#4D63F6"/>
		<stop  offset="0.648" style="stop-color:#1D45D8"/>
	</linearGradient>
	<path class="st1" d="M227.8,239.8h29.8V360h-29.8v-12.5c-9,10.6-20.6,15.9-34.8,15.9c-12,0-22.6-2.7-31.7-8.2
		c-9.1-5.4-16.2-13-21.1-22.6c-5-9.6-7.4-20.4-7.4-32.4c0-12,2.5-22.8,7.4-32.4c5-9.6,12-17.2,21.1-22.7c9.1-5.5,19.7-8.3,31.7-8.3
		c13.9,0,25.5,5.3,34.8,15.9V239.8z M218.1,325.4c6.5-6.7,9.7-15.2,9.7-25.5c0-10.2-3.2-18.7-9.6-25.2c-6.4-6.6-14.6-9.8-24.5-9.8
		c-9.3,0-16.9,3.4-22.8,10.3c-5.9,6.9-8.9,15.2-8.9,25c0,9.9,3,18.3,8.9,25.1c5.9,6.8,13.5,10.2,22.8,10.2
		C203.5,335.5,211.6,332.1,218.1,325.4z"/>
	<linearGradient id="SVGID_3_" gradientUnits="userSpaceOnUse" x1="263.364" y1="324.0244" x2="388.5303" y2="324.0244">
		<stop  offset="0.1732" style="stop-color:#4D63F6"/>
		<stop  offset="0.648" style="stop-color:#1D45D8"/>
	</linearGradient>
	<path class="st2" d="M357.3,239.8h31.2l-42,120.4c-6.2,16.5-14.9,28.9-25.8,37.1c-11,8.2-23.9,11.8-38.8,10.7v-28.8
		c1,0.2,2.4,0.2,4.3,0.2c12.8,0,22.8-7.8,30-23.3l-52.9-116.3h32l35.3,76.4L357.3,239.8z"/>
	<linearGradient id="SVGID_4_" gradientUnits="userSpaceOnUse" x1="386.8453" y1="275.8755" x2="545.4068" y2="275.8755">
		<stop  offset="0.1732" style="stop-color:#4D63F6"/>
		<stop  offset="0.648" style="stop-color:#1D45D8"/>
	</linearGradient>
	<path class="st3" d="M545.4,360H512l-12.5-33.9H433L420.5,360h-33.6l62.5-168.2h33.6L545.4,360z M466.4,236.7L444,296.3h44.4
		L466.4,236.7z"/>
	<linearGradient id="SVGID_5_" gradientUnits="userSpaceOnUse" x1="548.7697" y1="275.8755" x2="580" y2="275.8755">
		<stop  offset="0.1732" style="stop-color:#4D63F6"/>
		<stop  offset="0.648" style="stop-color:#1D45D8"/>
	</linearGradient>
	<path class="st4" d="M548.8,360V191.8H580V360H548.8z"/>
</g>
</svg>
