<?xml version="1.0" encoding="utf-8"?>
<!-- Generator: Adobe Illustrator 24.0.0, SVG Export Plug-In . SVG Version: 6.00 Build 0)  -->
<svg version="1.1" id="Layer_1" xmlns="http://www.w3.org/2000/svg" xmlns:xlink="http://www.w3.org/1999/xlink" x="0px" y="0px"
	 viewBox="0 0 500 500" style="enable-background:new 0 0 500 500;" xml:space="preserve">
<style type="text/css">
	.st0{fill:#FFFFFF;}
	.st1{fill:#231F20;}
	.st2{fill:url(#SVGID_1_);}
	.st3{fill:url(#SVGID_2_);}
	.st4{fill:url(#SVGID_3_);}
</style>
<g>
	<rect y="169.5099945" class="st0" width="500" height="160.9799957"/>
</g>
<g>
	<path class="st1" d="M239.0095825,209.3880768c4.5195007,2.6023712,8.0792542,6.1625977,10.6820984,10.6820984
		c2.6004791,4.5213776,3.9014282,9.4242096,3.9014282,14.7113037c0,5.2889862-1.3009491,10.1700439-3.9014282,14.6478882
		c-2.6028442,4.4773712-6.1625977,8.0390167-10.6820984,10.6816254c-4.5213776,2.6440125-9.4246826,3.965332-14.7113037,3.965332
		h-15.8631897v30.9587402h-16.6303101v-89.5489044h32.4934998
		C229.5848999,205.4861603,234.488205,206.7875977,239.0095825,209.3880768z M224.2982788,248.0858307
		c3.6657562,0,6.8218384-1.2990723,9.4663239-3.9014435c2.6426086-2.6009521,3.9658051-5.734787,3.9658051-9.4029083
		c0-3.7518921-1.3014221-6.9278412-3.9019165-9.5306854c-2.6023712-2.6004944-5.7783203-3.9014435-9.5302124-3.9014435h-15.8631897
		v26.7364807H224.2982788z"/>
	<path class="st1" d="M302.4623108,231.071701h15.8631897v63.9633636h-15.8631897v-6.6519165
		c-4.7778625,5.6287842-10.9603577,8.442688-18.5493164,8.442688c-6.3963928,0-12.0260925-1.4509583-16.8872681-4.3491211
		c-4.8612061-2.8981628-8.6149597-6.9084473-11.2575684-12.025177c-2.6440277-5.1167297-3.965332-10.8742371-3.965332-17.2705994
		c0-6.3959045,1.3213043-12.1524811,3.965332-17.2696838c2.6426086-5.1172028,6.3963623-9.1468811,11.2575684-12.0890503
		c4.8611755-2.9426422,10.4908752-4.4134827,16.8872681-4.4134827c7.4195557,0,13.6029663,2.8143921,18.5493164,8.4431763
		V231.071701z M297.2812195,276.6135254c3.4547119-3.5815125,5.1810913-8.1019592,5.1810913-13.5603638
		c0-5.4565125-1.7074585-9.9338989-5.1167297-13.4321289c-3.4130249-3.4958649-7.762146-5.2449799-13.0492554-5.2449799
		c-4.9472961,0-8.998291,1.8347778-12.1529541,5.5010071c-3.1565247,3.6676483-4.7333984,8.1033783-4.7333984,13.3038788
		c0,5.2889709,1.5768738,9.7450562,4.7333984,13.3691711c3.1546631,3.625061,7.205658,5.4366455,12.1529541,5.4366455
		C289.4972839,281.9867554,293.8265381,280.1959839,297.2812195,276.6135254z"/>
	<path class="st1" d="M371.4122925,231.071701h16.6317139l-22.3882751,64.0911407
		c-3.3259888,8.7834473-7.9107666,15.3710327-13.7525024,19.7646179
		c-5.8417664,4.3917236-12.7284241,6.2884827-20.6600037,5.6931458v-15.3511353
		c0.5130005,0.083313,1.2796326,0.1277771,2.3037415,0.1277771c6.8223267,0,12.1529541-4.1380615,15.9900208-12.4094238
		L321.394043,231.071701h17.0140991l18.8049011,40.6806488L371.4122925,231.071701z"/>
	<path class="st1" d="M471.5794067,295.0350647h-17.7826843l-6.6519165-18.037262H411.710083l-6.651947,18.037262h-17.911377
		l33.2615662-89.5489044h17.9094849L471.5794067,295.0350647z M429.4908447,229.4087219l-11.8973999,31.7258911h23.6679688
		L429.4908447,229.4087219z"/>
	<path class="st1" d="M473.3701477,295.0350647v-89.5489044H490v89.5489044H473.3701477z"/>
</g>
<g>
	
		<linearGradient id="SVGID_1_" gradientUnits="userSpaceOnUse" x1="10" y1="218.5960083" x2="157.1092529" y2="218.5960083" gradientTransform="matrix(1 0 0 -1 0 500)">
		<stop  offset="0.1731844" style="stop-color:#4D63F6"/>
		<stop  offset="0.6480446" style="stop-color:#1D45D8"/>
	</linearGradient>
	<path class="st2" d="M81.7021637,242.9928741l-69.4123917,34.706192c-3.0530291,1.5265198-3.0530291,5.8833618,0,7.4098511
		l69.4123917,34.7062073c1.166153,0.5830688,2.5387802,0.5830688,3.7049332,0l69.4123917-34.7062073
		c3.0530243-1.5264893,3.0530243-5.8833313,0-7.4098511l-69.4123917-34.706192
		C84.2409439,242.40979,82.8683167,242.40979,81.7021637,242.9928741z"/>
	
		<linearGradient id="SVGID_2_" gradientUnits="userSpaceOnUse" x1="10" y1="250.2374268" x2="157.1092529" y2="250.2374268" gradientTransform="matrix(1 0 0 -1 0 500)">
		<stop  offset="0.0055866" style="stop-color:#98AFFF"/>
		<stop  offset="0.6927374" style="stop-color:#4D63F6"/>
	</linearGradient>
	<path class="st3" d="M81.7021637,211.3514557l-69.4123917,34.706192c-3.0530291,1.5265198-3.0530291,5.8833466,0,7.4098663
		l69.4123917,34.706192c1.166153,0.5830688,2.5387802,0.5830688,3.7049332,0l69.4123917-34.706192
		c3.0530243-1.5265198,3.0530243-5.8833466,0-7.4098663l-69.4123917-34.706192
		C84.2409439,210.7683716,82.8683167,210.7683716,81.7021637,211.3514557z"/>
	
		<linearGradient id="SVGID_3_" gradientUnits="userSpaceOnUse" x1="10" y1="281.8788452" x2="157.1092529" y2="281.8788452" gradientTransform="matrix(1 0 0 -1 0 500)">
		<stop  offset="0" style="stop-color:#D7E3FF"/>
		<stop  offset="1" style="stop-color:#8AA3FF"/>
	</linearGradient>
	<path class="st4" d="M81.7021637,179.7100372l-69.4123917,34.706192c-3.0530291,1.5265198-3.0530291,5.8833466,0,7.4098511
		l69.4123917,34.7062073c1.166153,0.5830688,2.5387802,0.5830688,3.7049332,0l69.4123917-34.7062073
		c3.0530243-1.5265045,3.0530243-5.8833313,0-7.4098511l-69.4123917-34.706192
		C84.2409439,179.1269531,82.8683167,179.1269531,81.7021637,179.7100372z"/>
</g>
</svg>
