<?xml version="1.0" encoding="utf-8"?>
<!-- Generator: Adobe Illustrator 24.0.0, SVG Export Plug-In . SVG Version: 6.00 Build 0)  -->
<svg version="1.1" id="Layer_1" xmlns="http://www.w3.org/2000/svg" xmlns:xlink="http://www.w3.org/1999/xlink" x="0px" y="0px"
	 viewBox="0 0 600 600" style="enable-background:new 0 0 600 600;" xml:space="preserve">
<style type="text/css">
	.st0{enable-background:new    ;}
	.st1{fill:#231F20;}
</style>
<g class="st0">
	<path class="st1" d="M107.9,200c8.4,4.8,15,11.5,19.9,19.9c4.8,8.4,7.3,17.5,7.3,27.4c0,9.8-2.4,18.9-7.3,27.3
		c-4.8,8.3-11.5,15-19.9,19.9c-8.4,4.9-17.5,7.4-27.4,7.4H51v57.6H20V192.7h60.5C90.3,192.7,99.5,195.1,107.9,200z M80.5,272
		c6.8,0,12.7-2.4,17.6-7.3c4.9-4.8,7.4-10.7,7.4-17.5c0-7-2.4-12.9-7.3-17.7c-4.8-4.8-10.8-7.3-17.7-7.3H51V272H80.5z"/>
	<path class="st1" d="M227.2,240.4h29.5v119.1h-29.5v-12.4c-8.9,10.5-20.4,15.7-34.5,15.7c-11.9,0-22.4-2.7-31.4-8.1
		c-9.1-5.4-16-12.9-21-22.4c-4.9-9.5-7.4-20.2-7.4-32.2s2.5-22.6,7.4-32.2c4.9-9.5,11.9-17,21-22.5c9.1-5.5,19.5-8.2,31.4-8.2
		c13.8,0,25.3,5.2,34.5,15.7V240.4z M217.6,325.1c6.4-6.7,9.6-15.1,9.6-25.2c0-10.2-3.2-18.5-9.5-25c-6.4-6.5-14.5-9.8-24.3-9.8
		c-9.2,0-16.8,3.4-22.6,10.2c-5.9,6.8-8.8,15.1-8.8,24.8c0,9.8,2.9,18.1,8.8,24.9c5.9,6.8,13.4,10.1,22.6,10.1
		C203.1,335.2,211.2,331.8,217.6,325.1z"/>
	<path class="st1" d="M356.8,240.4h31l-41.7,119.3c-6.2,16.4-14.7,28.6-25.6,36.8c-10.9,8.2-23.7,11.7-38.5,10.6v-28.6
		c1,0.2,2.4,0.2,4.3,0.2c12.7,0,22.6-7.7,29.8-23.1l-52.4-115.3h31.7l35,75.7L356.8,240.4z"/>
	<path class="st1" d="M544.5,359.5h-33.1L499,325.9h-66l-12.4,33.6h-33.3l61.9-166.7h33.3L544.5,359.5z M466.1,237.3L444,296.3h44.1
		L466.1,237.3z"/>
	<path class="st1" d="M549,359.5V192.7h31v166.7H549z"/>
</g>
</svg>
