<?xml version="1.0" encoding="utf-8"?>
<!-- Generator: Adobe Illustrator 24.0.0, SVG Export Plug-In . SVG Version: 6.00 Build 0)  -->
<svg version="1.1" id="Layer_1" xmlns="http://www.w3.org/2000/svg" xmlns:xlink="http://www.w3.org/1999/xlink" x="0px" y="0px"
	 viewBox="0 0 600 600" style="enable-background:new 0 0 600 600;" xml:space="preserve">
<style type="text/css">
	.st0{fill:#FFFFFF;}
</style>
<g>
	<path class="st0" d="M108.6489487,199.4824371c8.4876556,4.8696289,15.1729126,11.5307617,20.0606613,19.987793
		c4.8828583,8.4604492,7.3272247,17.6352539,7.3272247,27.527832c0,9.8964691-2.4443665,19.0302582-7.3272247,27.4091644
		c-4.8877487,8.3779297-11.5730057,15.0429688-20.0606613,19.9873047
		c-8.490593,4.9482422-17.6986237,7.4208984-27.6279984,7.4208984H51.2308464v57.9287109H20v-167.562973h61.0209503
		C90.950325,192.1811676,100.1583557,194.6162262,108.6489487,199.4824371z M81.0209503,271.8935547
		c6.8842087,0,12.8118515-2.4316406,17.7780075-7.3007813c4.9622421-4.8662109,7.4477692-10.7314301,7.4477692-17.5947113
		c0-7.0200195-2.4443665-12.9633789-7.3272171-17.8334961c-4.8877487-4.8657227-10.8526306-7.3007813-17.8985596-7.3007813
		H51.2308464v50.0297699H81.0209503z"/>
	<path class="st0" d="M227.8093567,240.0561676h29.7910767v119.687973h-29.7910767V347.296875
		c-8.9698639,10.5322266-20.582077,15.7988281-34.8336945,15.7988281c-12.0130615,0-22.5834351-2.7158203-31.7120667-8.1386719
		c-9.1296234-5.4238281-16.1794739-12.9267578-21.1417084-22.5019531
		c-4.9661713-9.5751953-7.4477692-20.3466797-7.4477692-32.3154297s2.4815979-22.7402344,7.4477692-32.3154297
		c4.9622345-9.5751953,12.012085-17.1152191,21.1417084-22.6210785c9.1286316-5.5058594,19.6990051-8.2587891,31.7120667-8.2587891
		c13.9340668,0,25.5443115,5.2666016,34.8336945,15.7988281V240.0561676z M218.0809021,325.2744141
		c6.4862823-6.703125,9.7284546-15.1591797,9.7284546-25.3740234c0-10.2109375-3.2049255-18.5888672-9.6088867-25.1347656
		c-6.4078827-6.5410156-14.5760345-9.8144531-24.504425-9.8144531c-9.2903595,0-16.8998413,3.4335938-22.8235626,10.2929688
		c-5.9266663,6.8642578-8.8885193,15.1630859-8.8885193,24.8955078c0,9.8964844,2.961853,18.2333984,8.8885193,25.0146484
		c5.9237213,6.7851563,13.5332031,10.1738281,22.8235626,10.1738281
		C203.4636993,335.328125,211.5946045,331.9765625,218.0809021,325.2744141z"/>
	<path class="st0" d="M357.2980347,240.0561676h31.231842l-42.0433044,119.9272308
		c-6.2461548,16.4345703-14.8573303,28.7626953-25.825592,36.9833984
		c-10.972229,8.2177734-23.9046021,11.7666016-38.7991638,10.6523438v-28.7246094
		c0.9604797,0.1572266,2.4022217,0.2392578,4.3241882,0.2392578c12.8118591,0,22.8235474-7.7421875,30.0302124-23.2197266
		l-52.8527832-115.8578949h31.952179l35.3149109,76.1215668L357.2980347,240.0561676z"/>
	<path class="st0" d="M545.4074097,359.7441406h-33.3939209l-12.4923401-33.7519531h-66.5477295l-12.4923401,33.7519531h-33.6340332
		l62.462677-167.562973h33.6340332L545.4074097,359.7441406z M466.3673401,236.9443512l-22.3423157,59.3652191h44.444519
		L466.3673401,236.9443512z"/>
	<path class="st0" d="M548.769165,359.7441406v-167.562973H580v167.562973H548.769165z"/>
</g>
</svg>
