<?xml version="1.0" encoding="utf-8"?>
<!-- Generator: Adobe Illustrator 24.0.0, SVG Export Plug-In . SVG Version: 6.00 Build 0)  -->
<svg version="1.1" id="Layer_1" xmlns="http://www.w3.org/2000/svg" xmlns:xlink="http://www.w3.org/1999/xlink" x="0px" y="0px"
	 viewBox="0 0 50 50" style="enable-background:new 0 0 50 50;" xml:space="preserve">
<style type="text/css">
	.st0{fill:#FFFFFF;}
</style>
<rect width="50" height="50"/>
<g>
	<path class="st0" d="M24.4333401,22.9291801L3.2004299,33.5456352c-0.9339066,0.4669533-0.9339066,1.7996864,0,2.2666397
		L24.4333401,46.42873c0.35672,0.17836,0.7765999,0.17836,1.1333199,0l21.2329082-10.6164551
		c0.9339104-0.4669533,0.9339104-1.7996864,0-2.2666397L25.5666599,22.9291801
		C25.20994,22.7508202,24.79006,22.7508202,24.4333401,22.9291801z"/>
	<path class="st0" d="M24.4333401,13.2502251L3.2004299,23.8666801c-0.9339066,0.4669533-0.9339066,1.7996864,0,2.2666397
		l21.2329102,10.6164551c0.35672,0.17836,0.7765999,0.17836,1.1333199,0l21.2329082-10.6164551
		c0.9339104-0.4669533,0.9339104-1.7996864,0-2.2666397L25.5666599,13.2502251
		C25.20994,13.0718651,24.79006,13.0718651,24.4333401,13.2502251z"/>
	<path class="st0" d="M24.4333401,3.5712702L3.2004299,14.1877251c-0.9339066,0.4669533-0.9339066,1.7996855,0,2.2666397
		l21.2329102,10.6164551c0.35672,0.17836,0.7765999,0.17836,1.1333199,0l21.2329082-10.6164551
		c0.9339104-0.4669542,0.9339104-1.7996864,0-2.2666397L25.5666599,3.5712702
		C25.20994,3.39291,24.79006,3.39291,24.4333401,3.5712702z"/>
</g>
</svg>
