<?xml version="1.0" encoding="utf-8"?>
<!-- Generator: Adobe Illustrator 24.0.0, SVG Export Plug-In . SVG Version: 6.00 Build 0)  -->
<svg version="1.1" id="Layer_1" xmlns="http://www.w3.org/2000/svg" xmlns:xlink="http://www.w3.org/1999/xlink" x="0px" y="0px"
	 viewBox="0 0 16 16" style="enable-background:new 0 0 16 16;" xml:space="preserve">
<g>
	<path d="M7.8111134,7.3097267l-7.0776367,3.5388184c-0.3113022,0.1556511-0.3113022,0.5998955,0,0.7555466L7.8111134,15.14291
		c0.118907,0.059453,0.2588663,0.059453,0.3777733,0l7.0776367-3.5388184c0.3113022-0.1556511,0.3113022-0.5998955,0-0.7555466
		L8.1888866,7.3097267C8.0699797,7.2502732,7.9300203,7.2502732,7.8111134,7.3097267z"/>
	<path d="M7.8111134,4.0834084L0.7334766,7.6222267c-0.3113022,0.1556511-0.3113022,0.5998955,0,0.7555466l7.0776367,3.5388184
		c0.118907,0.059453,0.2588663,0.059453,0.3777733,0l7.0776367-3.5388184c0.3113022-0.1556511,0.3113022-0.5998955,0-0.7555466
		L8.1888866,4.0834084C8.0699797,4.0239549,7.9300203,4.0239549,7.8111134,4.0834084z"/>
	<path d="M7.8111134,0.8570901L0.7334766,4.3959084c-0.3113022,0.1556511-0.3113022,0.5998955,0,0.7555466l7.0776367,3.5388184
		c0.118907,0.059453,0.2588663,0.059453,0.3777733,0l7.0776367-3.5388184c0.3113022-0.1556511,0.3113022-0.5998955,0-0.7555466
		L8.1888866,0.8570901C8.0699797,0.7976366,7.9300203,0.7976366,7.8111134,0.8570901z"/>
</g>
</svg>
