<?xml version="1.0" encoding="utf-8"?>
<!-- Generator: Adobe Illustrator 24.0.0, SVG Export Plug-In . SVG Version: 6.00 Build 0)  -->
<svg version="1.1" id="Layer_1" xmlns="http://www.w3.org/2000/svg" xmlns:xlink="http://www.w3.org/1999/xlink" x="0px" y="0px"
	 viewBox="0 0 250 250" style="enable-background:new 0 0 250 250;" xml:space="preserve">
<style type="text/css">
	.st0{fill:#FFFFFF;}
</style>
<rect class="st0" width="250" height="250"/>
<g>
	<path d="M122.0407791,114.1857224L11.1578007,169.6272125c-4.8770676,2.4385376-4.8770676,9.3983612,0,11.8368835
		l110.8829803,55.4414978c1.8628693,0.931427,4.0555725,0.931427,5.9184418,0l110.8829727-55.4414978
		c4.8770752-2.4385223,4.8770752-9.3983459,0-11.8368835l-110.8829727-55.4414902
		C126.0963516,113.2542801,123.9036484,113.2542801,122.0407791,114.1857224z"/>
	<path d="M122.0407791,63.6400642L11.1578007,119.0815506c-4.8770676,2.4385376-4.8770676,9.3983688,0,11.8368912
		l110.8829803,55.4414978c1.8628693,0.931427,4.0555725,0.931427,5.9184418,0l110.8829727-55.4414978
		c4.8770752-2.4385223,4.8770752-9.3983536,0-11.8368912L127.9592209,63.6400642
		C126.0963516,62.7086296,123.9036484,62.7086296,122.0407791,63.6400642z"/>
	<path d="M122.0407791,13.0944109L11.1578007,68.5358963c-4.8770676,2.4385376-4.8770676,9.3983612,0,11.8368912
		l110.8829803,55.4414978c1.8628693,0.931427,4.0555725,0.931427,5.9184418,0l110.8829727-55.4414978
		c4.8770752-2.43853,4.8770752-9.3983536,0-11.8368912L127.9592209,13.0944109
		C126.0963516,12.1629744,123.9036484,12.1629744,122.0407791,13.0944109z"/>
</g>
</svg>
