<?xml version="1.0" encoding="utf-8"?>
<!-- Generator: Adobe Illustrator 24.0.0, SVG Export Plug-In . SVG Version: 6.00 Build 0)  -->
<svg version="1.1" id="Layer_1" xmlns="http://www.w3.org/2000/svg" xmlns:xlink="http://www.w3.org/1999/xlink" x="0px" y="0px"
	 viewBox="0 0 500 500" style="enable-background:new 0 0 500 500;" xml:space="preserve">
<style type="text/css">
	.st0{fill:#231F20;}
</style>
<g>
	<g>
		<path class="st0" d="M97.1607895,285.1567078c6.7792511,3.9035645,12.1188812,9.2438965,16.0231476,16.0231628
			c3.9007187,6.782074,5.8521423,14.136322,5.8521423,22.0669556c0,7.9334717-1.9514236,15.2550659-5.8521423,21.9718323
			c-3.9042664,6.7160645-9.2438965,12.0585327-16.0231476,16.0224304c-6.7820663,3.9660339-14.1370239,5.947998-22.0669556,5.947998
			H51.2990494v46.4381104H26.3535843V279.303833h48.7402496C83.0237656,279.303833,90.3787231,281.256012,97.1607895,285.1567078z
			 M75.0938339,343.2033386c5.4986343,0,10.2327576-1.9486084,14.1994858-5.8521423
			c3.963913-3.9014282,5.9487076-8.6022034,5.9487076-14.1043701c0-5.6278381-1.9521332-10.3917542-5.8528748-14.2960205
			c-3.9035568-3.9007568-8.6674805-5.8521729-14.2953186-5.8521729H51.2990494v40.1047058H75.0938339z"/>
		<path class="st0" d="M192.3398743,317.6821594h23.7947998v95.9450378h-23.7947998v-9.9778748
			c-7.1667786,8.4431763-16.4405212,12.664032-27.8239746,12.664032c-9.5945892,0-18.0391388-2.1764221-25.3309021-6.5236816
			c-7.2918091-4.347229-12.9224319-10.3626709-16.8863449-18.0377502c-3.9660416-7.6751099-5.947998-16.3113708-5.947998-25.9059143
			c0-9.5938416,1.9819565-18.2287292,5.947998-25.9045105c3.963913-7.6758118,9.5945358-13.7203369,16.8863449-18.1335754
			c7.2917633-4.4139709,15.7363129-6.6202393,25.3309021-6.6202393c11.1293335,0,20.4044495,4.2215881,27.8239746,12.6647644
			V317.6821594z M184.5682373,385.9949036c5.1820679-5.3722839,7.771637-12.1529541,7.771637-20.3405457
			c0-8.1847839-2.5611877-14.9008484-7.6750793-20.1481934c-5.1195374-5.2438049-11.643219-7.8674927-19.5738983-7.8674927
			c-7.4209442,0-13.4974365,2.7521667-18.2294312,8.2515259c-4.734787,5.5014648-7.1000977,12.1550598-7.1000977,19.9558105
			c0,7.9334717,2.3653107,14.6175842,7.1000977,20.053772c4.7319946,5.4375916,10.8084869,8.1549683,18.2294312,8.1549683
			C172.892334,394.0547485,179.3862305,391.3685913,184.5682373,385.9949036z"/>
		<path class="st0" d="M295.7648621,317.6821594h24.9475708l-33.582428,96.1367188
			c-4.9889832,13.1751709-11.8661499,23.0565491-20.6287537,29.6469116
			c-8.7626343,6.5875854-19.0926208,9.4327393-30.9899902,8.5397339v-23.0267029
			c0.7695007,0.1249695,1.9194336,0.1916504,3.4555969,0.1916504c10.23349,0,18.2294312-6.2070923,23.9850464-18.6141357
			l-42.2144165-92.874176h25.5211487l28.2073364,61.0209656L295.7648621,317.6821594z"/>
		<path class="st0" d="M446.0155334,413.6271973h-26.6740417l-9.9778748-27.0558777h-53.1520691l-9.9779358,27.0558777h-26.8670654
			l49.8923645-134.3233643h26.8642273L446.0155334,413.6271973z M382.8826904,315.1876831l-17.8460999,47.5888367h35.5019531
			L382.8826904,315.1876831z"/>
		<path class="st0" d="M448.7016296,413.6271973V279.303833h24.9447937v134.3233643H448.7016296z"/>
	</g>
	<g>
		<path d="M247.2212982,143.4147186l-104.118576,52.0592957c-4.5795441,2.2897797-4.5795441,8.8250427,0,11.1147766
			l104.118576,52.0593109c1.7492371,0.8746033,3.8081818,0.8746033,5.5574036,0l104.118576-52.0593109
			c4.5795593-2.2897339,4.5795593-8.8249969,0-11.1147766l-104.118576-52.0592957
			C251.02948,142.5401001,248.9705353,142.5401001,247.2212982,143.4147186z"/>
		<path d="M247.2212982,95.9525986l-104.118576,52.059288c-4.5795441,2.2897797-4.5795441,8.8250122,0,11.1147919
			l104.118576,52.0592957c1.7492371,0.8746033,3.8081818,0.8746033,5.5574036,0l104.118576-52.0592957
			c4.5795593-2.2897797,4.5795593-8.8250122,0-11.1147919l-104.118576-52.059288
			C251.02948,95.0779724,248.9705353,95.0779724,247.2212982,95.9525986z"/>
		<path d="M247.2212982,48.4904709l-104.118576,52.059288c-4.5795441,2.2897797-4.5795441,8.8250198,0,11.1147766
			l104.118576,52.0593109c1.7492371,0.8746033,3.8081818,0.8746033,5.5574036,0l104.118576-52.0593109
			c4.5795593-2.2897568,4.5795593-8.8249969,0-11.1147766l-104.118576-52.059288
			C251.02948,47.6158447,248.9705353,47.6158447,247.2212982,48.4904709z"/>
	</g>
</g>
</svg>
