<?xml version="1.0" encoding="utf-8"?>
<!-- Generator: Adobe Illustrator 24.0.0, SVG Export Plug-In . SVG Version: 6.00 Build 0)  -->
<svg version="1.1" id="Layer_1" xmlns="http://www.w3.org/2000/svg" xmlns:xlink="http://www.w3.org/1999/xlink" x="0px" y="0px"
	 viewBox="0 0 500 500" style="enable-background:new 0 0 500 500;" xml:space="preserve">
<style type="text/css">
	.st0{fill:#FFFFFF;}
	.st1{fill:url(#SVGID_1_);}
	.st2{fill:url(#SVGID_2_);}
	.st3{fill:url(#SVGID_3_);}
	.st4{fill:url(#SVGID_4_);}
	.st5{fill:url(#SVGID_5_);}
	.st6{fill:url(#SVGID_6_);}
	.st7{fill:url(#SVGID_7_);}
	.st8{fill:url(#SVGID_8_);}
</style>
<g>
	<rect class="st0" width="500" height="500"/>
</g>
<g>
	<linearGradient id="SVGID_1_" gradientUnits="userSpaceOnUse" x1="191.8048" y1="250.2606" x2="253.5931" y2="250.2606">
		<stop  offset="0.1732" style="stop-color:#4D63F6"/>
		<stop  offset="0.648" style="stop-color:#1D45D8"/>
	</linearGradient>
	<path class="st1" d="M239,209.4c4.5,2.6,8.1,6.2,10.7,10.7c2.6,4.5,3.9,9.4,3.9,14.7c0,5.3-1.3,10.2-3.9,14.6
		c-2.6,4.5-6.2,8-10.7,10.7c-4.5,2.6-9.4,4-14.7,4h-15.9v31h-16.6v-89.5h32.5C229.6,205.5,234.5,206.8,239,209.4z M224.3,248.1
		c3.7,0,6.8-1.3,9.5-3.9c2.6-2.6,4-5.7,4-9.4c0-3.8-1.3-6.9-3.9-9.5c-2.6-2.6-5.8-3.9-9.5-3.9h-15.9v26.7H224.3z"/>
	<linearGradient id="SVGID_2_" gradientUnits="userSpaceOnUse" x1="251.8028" y1="263.1173" x2="318.3255" y2="263.1173">
		<stop  offset="0.1732" style="stop-color:#4D63F6"/>
		<stop  offset="0.648" style="stop-color:#1D45D8"/>
	</linearGradient>
	<path class="st2" d="M302.5,231.1h15.9v64h-15.9v-6.7c-4.8,5.6-11,8.4-18.5,8.4c-6.4,0-12-1.5-16.9-4.3c-4.9-2.9-8.6-6.9-11.3-12
		c-2.6-5.1-4-10.9-4-17.3c0-6.4,1.3-12.2,4-17.3c2.6-5.1,6.4-9.1,11.3-12.1c4.9-2.9,10.5-4.4,16.9-4.4c7.4,0,13.6,2.8,18.5,8.4
		V231.1z M297.3,276.6c3.5-3.6,5.2-8.1,5.2-13.6c0-5.5-1.7-9.9-5.1-13.4c-3.4-3.5-7.8-5.2-13-5.2c-4.9,0-9,1.8-12.2,5.5
		c-3.2,3.7-4.7,8.1-4.7,13.3c0,5.3,1.6,9.7,4.7,13.4c3.2,3.6,7.2,5.4,12.2,5.4C289.5,282,293.8,280.2,297.3,276.6z"/>
	<linearGradient id="SVGID_3_" gradientUnits="userSpaceOnUse" x1="321.394" y1="275.8995" x2="388.044" y2="275.8995">
		<stop  offset="0.1732" style="stop-color:#4D63F6"/>
		<stop  offset="0.648" style="stop-color:#1D45D8"/>
	</linearGradient>
	<path class="st3" d="M371.4,231.1H388l-22.4,64.1c-3.3,8.8-7.9,15.4-13.8,19.8c-5.8,4.4-12.7,6.3-20.7,5.7v-15.4
		c0.5,0.1,1.3,0.1,2.3,0.1c6.8,0,12.2-4.1,16-12.4l-28.1-61.9h17l18.8,40.7L371.4,231.1z"/>
	<linearGradient id="SVGID_4_" gradientUnits="userSpaceOnUse" x1="387.1468" y1="250.2606" x2="471.5794" y2="250.2606">
		<stop  offset="0.1732" style="stop-color:#4D63F6"/>
		<stop  offset="0.648" style="stop-color:#1D45D8"/>
	</linearGradient>
	<path class="st4" d="M471.6,295h-17.8l-6.7-18h-35.4l-6.7,18h-17.9l33.3-89.5h17.9L471.6,295z M429.5,229.4l-11.9,31.7h23.7
		L429.5,229.4z"/>
	<linearGradient id="SVGID_5_" gradientUnits="userSpaceOnUse" x1="473.3701" y1="250.2606" x2="490" y2="250.2606">
		<stop  offset="0.1732" style="stop-color:#4D63F6"/>
		<stop  offset="0.648" style="stop-color:#1D45D8"/>
	</linearGradient>
	<path class="st5" d="M473.4,295v-89.5H490V295H473.4z"/>
</g>
<g>
	
		<linearGradient id="SVGID_6_" gradientUnits="userSpaceOnUse" x1="10" y1="220.596" x2="157.1093" y2="220.596" gradientTransform="matrix(1 0 0 -1 0 502)">
		<stop  offset="0.1732" style="stop-color:#4D63F6"/>
		<stop  offset="0.648" style="stop-color:#1D45D8"/>
	</linearGradient>
	<path class="st6" d="M81.7,243l-69.4,34.7c-3.1,1.5-3.1,5.9,0,7.4l69.4,34.7c1.2,0.6,2.5,0.6,3.7,0l69.4-34.7
		c3.1-1.5,3.1-5.9,0-7.4L85.4,243C84.2,242.4,82.9,242.4,81.7,243z"/>
	
		<linearGradient id="SVGID_7_" gradientUnits="userSpaceOnUse" x1="10" y1="252.2374" x2="157.1093" y2="252.2374" gradientTransform="matrix(1 0 0 -1 0 502)">
		<stop  offset="5.586600e-03" style="stop-color:#98AFFF"/>
		<stop  offset="0.6927" style="stop-color:#4D63F6"/>
	</linearGradient>
	<path class="st7" d="M81.7,211.4l-69.4,34.7c-3.1,1.5-3.1,5.9,0,7.4l69.4,34.7c1.2,0.6,2.5,0.6,3.7,0l69.4-34.7
		c3.1-1.5,3.1-5.9,0-7.4l-69.4-34.7C84.2,210.8,82.9,210.8,81.7,211.4z"/>
	
		<linearGradient id="SVGID_8_" gradientUnits="userSpaceOnUse" x1="10" y1="283.8788" x2="157.1093" y2="283.8788" gradientTransform="matrix(1 0 0 -1 0 502)">
		<stop  offset="0" style="stop-color:#D7E3FF"/>
		<stop  offset="1" style="stop-color:#8AA3FF"/>
	</linearGradient>
	<path class="st8" d="M81.7,179.7l-69.4,34.7c-3.1,1.5-3.1,5.9,0,7.4l69.4,34.7c1.2,0.6,2.5,0.6,3.7,0l69.4-34.7
		c3.1-1.5,3.1-5.9,0-7.4l-69.4-34.7C84.2,179.1,82.9,179.1,81.7,179.7z"/>
</g>
</svg>
